<?xml version="1.0" standalone="no"?>
<!DOCTYPE svg PUBLIC "-//W3C//DTD SVG 20010904//EN"
 "http://www.w3.org/TR/2001/REC-SVG-20010904/DTD/svg10.dtd">
<svg version="1.0" xmlns="http://www.w3.org/2000/svg"
 width="508.000000pt" height="508.000000pt" viewBox="0 0 508.000000 508.000000"
 preserveAspectRatio="xMidYMid meet">
<metadata>
Created by potrace 1.14, written by Peter Selinger 2001-2017
</metadata>
<g transform="translate(0.000000,508.000000) scale(0.100000,-0.100000)"
fill="#000000" stroke="none">
<path d="M2508 5075 c-2 -1 -32 -5 -68 -9 -425 -40 -907 -255 -1205 -537 -27
-26 -59 -56 -71 -66 -12 -10 -61 -63 -109 -118 -160 -183 -310 -435 -385 -650
-25 -70 -69 -211 -75 -240 -22 -110 -28 -144 -39 -220 -16 -111 -23 -373 -12
-435 3 -14 7 -47 10 -75 3 -27 10 -75 16 -105 6 -30 13 -68 16 -85 9 -52 44
-166 86 -280 40 -110 135 -307 150 -313 4 -2 8 -8 8 -13 0 -18 89 -147 170
-248 287 -357 692 -589 1110 -637 145 -16 360 -9 367 12 2 6 -30 38 -70 72
-398 329 -704 787 -990 1482 -72 175 -177 546 -177 624 0 22 9 45 24 63 l24
28 396 0 396 -1 1 33 c1 18 2 36 3 41 1 4 6 33 10 66 4 32 9 68 11 80 2 11 6
39 10 61 16 112 81 292 144 400 204 352 537 569 941 612 262 28 570 -12 850
-112 112 -39 130 -44 130 -36 0 5 -40 47 -90 95 -267 257 -737 456 -1190 504
-74 8 -385 13 -392 7z"/>
<path d="M1010 4589 c-258 -147 -552 -503 -747 -906 -62 -128 -68 -141 -108
-248 -22 -58 -67 -207 -80 -265 -56 -236 -73 -398 -70 -645 3 -208 6 -249 31
-400 144 -869 725 -1608 1519 -1930 230 -93 484 -156 750 -184 195 -21 587 0
765 40 25 6 56 13 70 15 31 6 150 38 210 57 158 49 388 156 538 249 235 147
441 355 607 613 28 44 58 94 67 110 8 17 26 51 40 76 65 120 137 328 173 503
19 89 27 371 13 451 -3 17 -9 48 -13 70 -11 64 -63 212 -99 284 -113 222 -247
340 -395 347 -202 9 -326 -155 -604 -796 -113 -261 -158 -355 -234 -482 -175
-296 -390 -475 -683 -569 -495 -159 -1019 -57 -1490 290 -356 262 -653 686
-781 1115 -70 235 -94 528 -63 771 8 61 16 130 19 153 15 114 105 425 156 539
10 23 19 45 19 49 0 15 125 253 167 318 44 69 130 186 144 196 6 5 128 174
143 198 11 19 -5 14 -64 -19z"/>
<path d="M3257 4524 c-2 -2 -23 -6 -48 -8 -233 -24 -492 -149 -664 -321 -169
-168 -270 -375 -316 -646 -37 -213 -18 -495 47 -704 8 -27 19 -58 25 -67 5
-10 9 -23 9 -29 0 -20 81 -182 127 -254 49 -75 116 -158 173 -213 47 -45 116
-102 123 -102 4 0 17 19 29 41 13 23 28 49 33 58 6 9 39 66 74 126 272 467
500 701 797 818 49 19 118 42 154 49 87 20 238 16 320 -7 270 -77 510 -341
659 -723 49 -128 101 -306 117 -407 3 -21 7 -45 9 -54 8 -44 23 -178 24 -231
1 -23 3 -21 24 15 42 75 79 194 94 310 15 116 8 477 -11 605 -3 14 -7 50 -11
80 -3 30 -8 62 -10 70 -2 8 -7 31 -10 50 -49 294 -202 640 -388 878 -210 270
-493 489 -742 577 -27 9 -59 21 -70 25 -34 14 -137 39 -210 51 -64 11 -349 21
-358 13z"/>
</g>
</svg>
